<svg xmlns="http://www.w3.org/2000/svg" xmlns:cc="http://web.resource.org/cc/" xmlns:svg="http://www.w3.org/2000/svg" xmlns:xlink="http://www.w3.org/1999/xlink" id="svg2444" width="128" height="128" version="1.0"><defs id="defs2446"><linearGradient id="linearGradient2384"><stop id="stop2386" offset="0" style="stop-color:#b6b6b6;stop-opacity:1"/><stop id="stop2388" offset="1" style="stop-color:#6a6a6a;stop-opacity:1"/></linearGradient><linearGradient id="linearGradient2390" x1="21.357" x2="32.643" y1="17.643" y2="17.643" gradientUnits="userSpaceOnUse" xlink:href="#linearGradient2384"/><linearGradient id="linearGradient2606" x1="21.357" x2="31.929" y1="17.643" y2="17.643" gradientUnits="userSpaceOnUse" xlink:href="#linearGradient2600"/><linearGradient id="linearGradient2600"><stop style="stop-color:#000;stop-opacity:1" id="stop2602" offset="0"/><stop id="stop2380" offset=".5" style="stop-color:#424242;stop-opacity:1"/><stop style="stop-color:#7c7c7c;stop-opacity:1" id="stop2604" offset="1"/></linearGradient><linearGradient id="linearGradient2608" x1="32.786" x2="19.375" y1="15.143" y2="15" gradientTransform="matrix(1,0,0,1.173859,0,-3.44458)" gradientUnits="userSpaceOnUse" xlink:href="#linearGradient2600"/><linearGradient id="linearGradient2831"><stop style="stop-color:#000;stop-opacity:0" id="stop2833" offset="0"/><stop id="stop2839" offset=".776" style="stop-color:#4d4d4d;stop-opacity:.88165683"/><stop style="stop-color:#595959;stop-opacity:0" id="stop2835" offset="1"/></linearGradient><radialGradient id="radialGradient2837" cx="24.786" cy="18.357" r="9.786" fx="24.786" fy="18.357" gradientTransform="matrix(1,0,0,0.664234,0,6.163712)" gradientUnits="userSpaceOnUse" xlink:href="#linearGradient2831"/><linearGradient id="linearGradient2697"><stop id="stop2699" offset="0" style="stop-color:#222;stop-opacity:1"/><stop id="stop2701" offset="1" style="stop-color:#afafaf;stop-opacity:1"/></linearGradient><linearGradient id="linearGradient2703" x1="24.547" x2="24.547" y1="18" y2="23.945" gradientUnits="userSpaceOnUse" xlink:href="#linearGradient2697"/><linearGradient id="linearGradient2688"><stop id="stop2690" offset="0" style="stop-color:#fff;stop-opacity:1"/><stop id="stop2692" offset="1" style="stop-color:#fff;stop-opacity:0"/></linearGradient><linearGradient id="linearGradient2694" x1="13.923" x2="31.951" y1="7.817" y2="7.817" gradientUnits="userSpaceOnUse" xlink:href="#linearGradient2688"/><linearGradient id="linearGradient2641"><stop id="stop2643" offset="0" style="stop-color:#393939;stop-opacity:1"/><stop style="stop-color:#747474;stop-opacity:1" id="stop2649" offset=".159"/><stop id="stop2645" offset="1" style="stop-color:#000;stop-opacity:1"/></linearGradient><linearGradient id="linearGradient2647" x1="12.84" x2="36.098" y1="19.42" y2="19.42" gradientUnits="userSpaceOnUse" xlink:href="#linearGradient2641"/><linearGradient id="linearGradient2563"><stop id="stop2565" offset="0" style="stop-color:#e7e7e7;stop-opacity:1"/><stop id="stop2567" offset="1" style="stop-color:#a0a0a0;stop-opacity:1"/></linearGradient><linearGradient id="linearGradient2569" x1="31.264" x2="36.062" y1="31.408" y2="31.408" gradientUnits="userSpaceOnUse" xlink:href="#linearGradient2563"/><linearGradient id="linearGradient2633"><stop id="stop2635" offset="0" style="stop-color:#2a2500;stop-opacity:1"/><stop id="stop2637" offset="1" style="stop-color:#6e6200;stop-opacity:1"/></linearGradient><linearGradient id="linearGradient2631" x1="24.525" x2="24.525" y1="21.13" y2="26.433" gradientUnits="userSpaceOnUse" xlink:href="#linearGradient2633"/><linearGradient id="linearGradient2571"><stop id="stop2573" offset="0" style="stop-color:#fff7b1;stop-opacity:1"/><stop style="stop-color:#ecd300;stop-opacity:1" id="stop2579" offset=".5"/><stop id="stop2575" offset="1" style="stop-color:#b5a200;stop-opacity:1"/></linearGradient><linearGradient id="linearGradient2577" x1="11.953" x2="37.096" y1="27.774" y2="27.774" gradientUnits="userSpaceOnUse" xlink:href="#linearGradient2571"/><linearGradient id="linearGradient2587"><stop style="stop-color:#000;stop-opacity:1" id="stop2589" offset="0"/><stop style="stop-color:#000;stop-opacity:0" id="stop2591" offset="1"/></linearGradient><radialGradient id="radialGradient2593" cx="25.456" cy="36.686" r="15.758" fx="25.456" fy="36.686" gradientTransform="matrix(1,0,0,0.653846,0,12.6991)" gradientUnits="userSpaceOnUse" xlink:href="#linearGradient2587"/><linearGradient id="linearGradient2610"><stop style="stop-color:#3c3c3c;stop-opacity:1" id="stop2612" offset="0"/><stop style="stop-color:#585858;stop-opacity:1" id="stop2614" offset="1"/></linearGradient><linearGradient id="linearGradient2616" x1="12.834" x2="33.027" y1="17.392" y2="17.392" gradientUnits="userSpaceOnUse" xlink:href="#linearGradient2610"/><linearGradient id="linearGradient9515"><stop style="stop-color:#387eb8;stop-opacity:1" id="stop9517" offset="0"/><stop style="stop-color:#366994;stop-opacity:1" id="stop9519" offset="1"/></linearGradient><linearGradient id="linearGradient2456" x1="55.549" x2="110.149" y1="77.07" y2="131.853" gradientTransform="translate(-34.9375,-61.930532)" gradientUnits="userSpaceOnUse" xlink:href="#linearGradient9515"/><linearGradient id="linearGradient11301"><stop style="stop-color:#ffe052;stop-opacity:1" id="stop11303" offset="0"/><stop style="stop-color:#ffc331;stop-opacity:1" id="stop11305" offset="1"/></linearGradient><linearGradient id="linearGradient2453" x1="89.137" x2="147.777" y1="111.921" y2="168.101" gradientTransform="translate(-34.9375,-61.930532)" gradientUnits="userSpaceOnUse" xlink:href="#linearGradient11301"/><linearGradient id="linearGradient2594" x1="32.786" x2="19.375" y1="15.143" y2="15" gradientTransform="matrix(2.2515151,0,0,2.8881456,187.13023,6.2530595)" gradientUnits="userSpaceOnUse" xlink:href="#linearGradient2600"/><linearGradient id="linearGradient2623" x1="21.357" x2="32.643" y1="17.643" y2="17.643" gradientUnits="userSpaceOnUse" xlink:href="#linearGradient2384"/><linearGradient id="linearGradient2625" x1="21.357" x2="31.929" y1="17.643" y2="17.643" gradientUnits="userSpaceOnUse" xlink:href="#linearGradient2600"/><radialGradient id="radialGradient2627" cx="24.786" cy="18.357" r="9.786" fx="24.786" fy="18.357" gradientTransform="matrix(1,0,0,0.664234,0,6.163712)" gradientUnits="userSpaceOnUse" xlink:href="#linearGradient2831"/><linearGradient id="linearGradient2750" x1="12.834" x2="33.027" y1="17.392" y2="17.392" gradientTransform="matrix(2.2515151,0,0,2.4603854,187.13023,14.728054)" gradientUnits="userSpaceOnUse" xlink:href="#linearGradient2610"/><radialGradient id="radialGradient2752" cx="25.456" cy="36.686" r="15.758" fx="25.456" fy="36.686" gradientTransform="matrix(1,0,0,0.653846,0,12.6991)" gradientUnits="userSpaceOnUse" xlink:href="#linearGradient2587"/><linearGradient id="linearGradient2754" x1="11.953" x2="37.096" y1="27.774" y2="27.774" gradientTransform="matrix(2.2515151,0,0,2.4603854,187.13023,14.728054)" gradientUnits="userSpaceOnUse" xlink:href="#linearGradient2571"/><linearGradient id="linearGradient2756" x1="24.525" x2="24.525" y1="21.13" y2="26.433" gradientTransform="matrix(2.2515151,0,0,2.4603854,187.13023,14.728054)" gradientUnits="userSpaceOnUse" xlink:href="#linearGradient2633"/><linearGradient id="linearGradient2758" x1="31.264" x2="36.062" y1="31.408" y2="31.408" gradientTransform="matrix(2.2515151,0,0,2.4603854,187.13023,14.728054)" gradientUnits="userSpaceOnUse" xlink:href="#linearGradient2563"/><linearGradient id="linearGradient2760" x1="12.84" x2="36.098" y1="19.42" y2="19.42" gradientTransform="matrix(2.2515151,0,0,2.4603854,187.13023,14.728054)" gradientUnits="userSpaceOnUse" xlink:href="#linearGradient2641"/><linearGradient id="linearGradient2762" x1="13.923" x2="31.951" y1="7.817" y2="7.817" gradientTransform="matrix(2.2515151,0,0,2.4603854,187.13023,14.728054)" gradientUnits="userSpaceOnUse" xlink:href="#linearGradient2688"/><linearGradient id="linearGradient2764" x1="24.547" x2="24.547" y1="18" y2="23.945" gradientTransform="matrix(2.2515151,0,0,2.4603854,187.13023,14.728054)" gradientUnits="userSpaceOnUse" xlink:href="#linearGradient2697"/></defs><metadata id="metadata2449"/><g id="layer1"><path style="color:#000;fill:url(#linearGradient2456);fill-opacity:1;fill-rule:nonzero;stroke:none;stroke-width:1;stroke-linecap:butt;stroke-linejoin:miter;marker:none;marker-start:none;marker-mid:none;marker-end:none;stroke-miterlimit:4;stroke-dasharray:none;stroke-dashoffset:0;stroke-opacity:1;visibility:visible;display:inline;overflow:visible" id="path8615" d="M 64.812506,5.5382173 C 36.780773,5.5382173 38.531253,17.694467 38.531253,17.694467 L 38.562503,30.288217 L 65.312506,30.288217 L 65.312506,34.069467 L 27.937503,34.069467 C 27.937503,34.069467 10,32.035197 10,60.319467 C 10,88.603717 25.656253,87.600717 25.656253,87.600717 L 35.000003,87.600717 L 35.000003,74.475717 C 35.000003,74.475717 34.496353,58.819467 50.406256,58.819467 C 66.316156,58.819467 76.937505,58.819467 76.937505,58.819467 C 76.937505,58.819467 91.843755,59.060427 91.843755,44.413217 C 91.843755,29.766017 91.843755,20.194467 91.843755,20.194467 C 91.843755,20.194467 94.106935,5.5382173 64.812506,5.5382173 z M 50.062506,14.006967 C 52.723936,14.006967 54.875006,16.158037 54.875006,18.819467 C 54.875006,21.480897 52.723936,23.631967 50.062506,23.631967 C 47.401076,23.631967 45.250003,21.480897 45.250003,18.819467 C 45.250003,16.158037 47.401076,14.006967 50.062506,14.006967 z"/><path id="path8620" d="M 65.608606,115.38432 C 93.640345,115.38432 91.889855,103.22812 91.889855,103.22812 L 91.858605,90.634317 L 65.108606,90.634317 L 65.108606,86.853117 L 102.4836,86.853117 C 102.4836,86.853117 120.4211,88.887317 120.4211,60.603057 C 120.42111,32.318787 104.76485,33.321807 104.76485,33.321807 L 95.421105,33.321807 L 95.421105,46.446807 C 95.421105,46.446807 95.924765,62.103057 80.014855,62.103057 C 64.104956,62.103057 53.483606,62.103057 53.483606,62.103057 C 53.483606,62.103057 38.577353,61.862097 38.577353,76.509317 C 38.577353,91.156517 38.577353,100.72812 38.577353,100.72812 C 38.577353,100.72812 36.314173,115.38432 65.608606,115.38432 z M 80.358605,106.91562 C 77.697175,106.91562 75.546105,104.76452 75.546105,102.10312 C 75.546105,99.44162 77.697175,97.29062 80.358605,97.29062 C 83.020035,97.29062 85.171105,99.44162 85.171105,102.10312 C 85.171115,104.76452 83.020035,106.91562 80.358605,106.91562 z" style="color:#000;fill:url(#linearGradient2453);fill-opacity:1;fill-rule:nonzero;stroke:none;stroke-width:1;stroke-linecap:butt;stroke-linejoin:miter;marker:none;marker-start:none;marker-mid:none;marker-end:none;stroke-miterlimit:4;stroke-dasharray:none;stroke-dashoffset:0;stroke-opacity:1;visibility:visible;display:inline;overflow:visible"/><g id="g2724" transform="matrix(0.9426144,0,0,0.9426144,-139.75945,-0.7356727)"><path id="path2595" d="M 217.15196,93.557802 L 217.60683,43.850511 C 217.60683,43.850511 216.8108,33.039165 227.1592,27.447094 C 237.5076,21.855025 260.36506,21.48222 260.36506,21.48222 L 260.36506,36.14587 C 260.36506,36.14587 245.80907,38.631236 243.53469,44.596116 C 241.26032,50.560996 238.98594,74.669033 238.98594,74.669033 L 217.15196,93.557802 z" style="fill:url(#linearGradient2750);fill-opacity:1;fill-rule:evenodd;stroke:#3d3d3d;stroke-width:2.35363436;stroke-linecap:round;stroke-linejoin:round;stroke-miterlimit:4;stroke-dasharray:none;stroke-opacity:1"/><path id="path2585" d="M 41.214225 36.686291 A 15.75838 10.303555 0 1 1 9.6974649,36.686291 A 15.75838 10.303555 0 1 1 41.214225 36.686291 z" transform="matrix(2.2515151,0,0,2.4603854,185.31072,16.71635)" style="color:#000;fill:url(#radialGradient2752);fill-opacity:1;fill-rule:nonzero;stroke:none;stroke-width:1;stroke-linecap:butt;stroke-linejoin:miter;marker:none;marker-start:none;marker-mid:none;marker-end:none;stroke-miterlimit:4;stroke-dasharray:none;stroke-dashoffset:0;stroke-opacity:1;visibility:visible;display:block;overflow:visible;font-family:Bitstream Vera Sans"/><path id="path2579" d="M 268.88324,56.454034 C 268.88324,56.454034 269.52653,104.81318 269.52653,104.81318 C 269.60694,115.18194 256.82155,123.90615 244.11658,124.52125 C 231.4116,125.13634 219.80685,117.55792 217.74169,110.28616 C 216.71821,106.68238 215.16852,104.35206 215.16852,98.511458 L 215.41547,41.567443 L 224.17459,63.132222 L 254.40922,62.780739 L 268.88324,56.454034 z" style="fill:url(#linearGradient2754);fill-opacity:1;fill-rule:evenodd;stroke:url(#linearGradient2756);stroke-width:2.35363436;stroke-linecap:butt;stroke-linejoin:miter;stroke-miterlimit:4;stroke-dasharray:none;stroke-opacity:1"/><path style="color:#000;fill:#544b00;fill-opacity:1;fill-rule:nonzero;stroke:none;stroke-width:.5;stroke-linecap:butt;stroke-linejoin:miter;marker:none;marker-start:none;marker-mid:none;marker-end:none;stroke-miterlimit:4;stroke-dashoffset:0;stroke-opacity:1;visibility:visible;display:block;overflow:visible" id="rect2558" d="M 253.31449,78.76987 L 257.86324,76.905848 L 257.63581,119.52985 L 253.31449,121.51815 L 253.31449,78.76987 z"/><path style="fill:url(#linearGradient2758);fill-opacity:1;fill-rule:evenodd;stroke:none;stroke-width:.25pt;stroke-linecap:butt;stroke-linejoin:miter;stroke-opacity:1" id="path2561" d="M 257.86324,76.843716 L 257.5221,119.40559 C 262.98059,116.67169 267.41562,111.94949 268.43909,106.48169 L 267.98421,67.834269 C 266.27842,71.43805 263.43546,73.612742 257.86324,76.843716 z"/><rect style="opacity:.4620253;color:#000;fill:#e7e7e7;fill-opacity:1;fill-rule:nonzero;stroke:none;stroke-width:.5;stroke-linecap:round;stroke-linejoin:round;marker:none;marker-start:none;marker-mid:none;marker-end:none;stroke-miterlimit:4;stroke-dasharray:none;stroke-dashoffset:0;stroke-opacity:1;visibility:visible;display:block;overflow:visible" id="rect2600" width="3.731" height="6.089" x="331.815" y="282.653" rx=".477" ry=".656" transform="matrix(0.6705431,-0.7418705,0,1,0,0)"/><path style="opacity:.49367089;fill:none;fill-opacity:1;fill-rule:evenodd;stroke:#fff;stroke-width:2.35363507;stroke-linecap:butt;stroke-linejoin:miter;stroke-miterlimit:4;stroke-dasharray:none;stroke-opacity:1" id="path2613" d="M 267.07404,58.268209 C 267.07404,58.268209 267.67347,103.85741 267.67347,103.85741 C 267.7484,113.51922 255.83473,121.6486 243.99599,122.22175 C 232.15726,122.79491 221.34373,115.7332 219.41937,108.95724 C 218.46568,105.59916 217.02165,102.9005 217.02165,97.458116 L 217.25176,44.396601 L 225.41366,64.49107 L 253.58687,64.163551 L 267.07404,58.268209 z"/><path style="color:#000;fill:url(#linearGradient2760);fill-opacity:1;fill-rule:nonzero;stroke:none;stroke-width:1;stroke-linecap:butt;stroke-linejoin:miter;marker:none;marker-start:none;marker-mid:none;marker-end:none;stroke-miterlimit:4;stroke-dasharray:none;stroke-dashoffset:0;stroke-opacity:1;visibility:visible;display:block;overflow:visible" id="path2550" d="M 243.63411,44.887374 C 233.93707,44.887374 225.80539,48.63042 221.47076,53.88317 L 216.31025,48.995556 C 216.31025,48.995556 215.44464,60.254393 216.80927,64.163635 C 219.53852,74.346422 229.51903,80.132018 243.63411,80.132018 C 257.74918,80.132018 268.40629,72.55519 268.4063,67.591671 C 268.4063,62.935213 268.20713,60.861013 268.20713,60.861013 C 268.20713,60.861013 250.69164,44.887374 243.63411,44.887374 z"/><path style="opacity:.4240506;fill:url(#linearGradient2762);fill-opacity:1;fill-rule:evenodd;stroke:none;stroke-width:1;stroke-linecap:round;stroke-linejoin:round;stroke-miterlimit:4;stroke-dasharray:none;stroke-opacity:1" id="path2677" d="M 259.06727,22.58146 C 259.06727,22.58146 238.40891,22.909693 228.06051,28.501763 C 217.71212,34.093833 218.49158,44.95559 218.49158,44.95559 L 218.70265,45.340026 C 218.70265,45.340026 217.92319,34.478269 228.27159,28.886198 C 238.53455,23.340302 258.69533,22.972328 259.06727,22.965896 L 259.06727,22.58146 z"/><path style="color:#000;fill:#3f3f3f;fill-opacity:1;fill-rule:nonzero;stroke:url(#linearGradient2764);stroke-width:2.35363436;stroke-linecap:butt;stroke-linejoin:miter;marker:none;marker-start:none;marker-mid:none;marker-end:none;stroke-miterlimit:4;stroke-dasharray:none;stroke-dashoffset:0;stroke-opacity:1;visibility:visible;display:block;overflow:visible" id="path2602" d="M 243.63411,38.658658 C 233.93707,38.658658 225.80539,42.401705 221.47076,47.654456 L 218.75687,40.954293 L 215.62084,41.316762 C 215.62084,41.316762 218.1739,55.516896 218.1739,55.573821 C 220.61884,65.818743 229.51903,72.412084 243.63411,72.412084 C 257.74918,72.412084 269.17473,64.88673 269.17473,55.573821 C 269.17473,46.260911 257.74918,38.658658 243.63411,38.658658 z"/><path id="path2829" d="M 34.571429 18.357143 A 9.7857141 6.5 0 1 1 15.000001,18.357143 A 9.7857141 6.5 0 1 1 34.571429 18.357143 z" transform="matrix(2.2515151,0,0,2.3251995,188.09516,12.50859)" style="color:#000;fill:url(#radialGradient2627);fill-opacity:1;fill-rule:nonzero;stroke:none;stroke-width:1;stroke-linecap:butt;stroke-linejoin:miter;marker:none;marker-start:none;marker-mid:none;marker-end:none;stroke-miterlimit:4;stroke-dasharray:none;stroke-dashoffset:0;stroke-opacity:1;visibility:visible;display:block;overflow:visible;font-family:Bitstream Vera Sans"/><path id="path2581" d="M 243.48846,40.820549 C 237.09673,40.820549 231.87909,44.992371 231.87909,50.116765 C 231.87909,50.819958 231.87909,53.44606 231.87909,54.178222 C 231.87909,59.302617 237.09673,63.474437 243.48846,63.474439 C 249.88019,63.474439 255.02748,59.302617 255.02748,54.178222 C 255.02748,53.44606 255.02748,50.819958 255.02748,50.116765 C 255.02748,44.992371 249.88019,40.820549 243.48846,40.820549 z" style="color:#000;fill:url(#linearGradient2594);fill-opacity:1;fill-rule:nonzero;stroke:none;stroke-width:1;stroke-linecap:butt;stroke-linejoin:miter;marker:none;marker-start:none;marker-mid:none;marker-end:none;stroke-miterlimit:4;stroke-dasharray:none;stroke-dashoffset:0;stroke-opacity:1;visibility:visible;display:block;overflow:visible;font-family:Bitstream Vera Sans"/><path style="color:#000;fill:url(#linearGradient2625);fill-opacity:1;fill-rule:nonzero;stroke:none;stroke-width:1;stroke-linecap:butt;stroke-linejoin:miter;marker:none;marker-start:none;marker-mid:none;marker-end:none;stroke-miterlimit:4;stroke-dasharray:none;stroke-dashoffset:0;stroke-opacity:1;visibility:visible;display:block;overflow:visible;font-family:Bitstream Vera Sans" id="path2583" d="M 32.142857 17.642857 A 5.1428571 3.2142856 0 1 1 21.857143,17.642857 A 5.1428571 3.2142856 0 1 1 32.142857 17.642857 z" transform="matrix(2.2515151,0,0,2.4603854,182.68238,5.1927761)"/><path style="opacity:.31645568;fill:#fff;fill-opacity:1;fill-rule:evenodd;stroke:none;stroke-width:.25pt;stroke-linecap:butt;stroke-linejoin:miter;stroke-opacity:1" id="path2617" d="M 215.75891,41.380671 L 219.08518,41.007866 L 221.81442,48.199889 C 221.81442,48.199889 227.39896,42.313046 236.82529,40.495258 C 246.49138,38.631236 254.67913,41.489404 254.67913,41.489404 C 254.67913,41.489404 243.19353,39.625379 235.57438,41.613672 C 227.84761,43.630051 225.43921,45.730059 221.00418,49.830911 C 221.00418,49.830911 218.11857,42.638884 218.11857,42.638884 L 215.75891,41.380671 z"/><path id="path2382" d="M 32.142857 17.642857 A 5.1428571 3.2142856 0 1 1 21.857143,17.642857 A 5.1428571 3.2142856 0 1 1 32.142857 17.642857 z" transform="matrix(2.1858631,0,0,2.388643,184.45498,6.4585189)" style="color:#000;fill:none;fill-opacity:1;fill-rule:nonzero;stroke:url(#linearGradient2623);stroke-width:.51501739;stroke-linecap:butt;stroke-linejoin:miter;marker:none;marker-start:none;marker-mid:none;marker-end:none;stroke-miterlimit:4;stroke-dasharray:none;stroke-dashoffset:0;stroke-opacity:1;visibility:visible;display:block;overflow:visible;font-family:Bitstream Vera Sans"/><text style="font-size:12.97853184px;font-style:normal;font-variant:normal;font-weight:700;font-stretch:normal;text-align:start;line-height:100%;writing-mode:lr-tb;text-anchor:start;fill:#000;fill-opacity:1;stroke:none;stroke-width:1pt;stroke-linecap:butt;stroke-linejoin:miter;stroke-opacity:1;font-family:Bitstream Vera Sans" id="text2554" x="84.185" y="-232.789" transform="matrix(0,0.971813,-1.0290045,0,0,0)" xml:space="preserve"><tspan id="tspan2621" x="84.185" y="-232.789">exiv2</tspan></text><rect style="color:#000;fill:#e7e7e7;fill-opacity:1;fill-rule:nonzero;stroke:none;stroke-width:.5;stroke-linecap:round;stroke-linejoin:round;marker:none;marker-start:none;marker-mid:none;marker-end:none;stroke-miterlimit:4;stroke-dasharray:none;stroke-dashoffset:0;stroke-opacity:1;visibility:visible;display:block;overflow:visible" id="rect2592" width="4.796" height="6.089" x="253.335" y="47.781" rx=".645" ry=".656" transform="matrix(0.9958793,-9.068878e-2,0,1,0,0)"/><rect id="rect2594" width="4.816" height="6.089" x="245.89" y="57.546" rx=".647" ry=".656" transform="matrix(0.9918091,-0.127729,0,1,0,0)" style="color:#000;fill:#e7e7e7;fill-opacity:1;fill-rule:nonzero;stroke:none;stroke-width:.5;stroke-linecap:round;stroke-linejoin:round;marker:none;marker-start:none;marker-mid:none;marker-end:none;stroke-miterlimit:4;stroke-dasharray:none;stroke-dashoffset:0;stroke-opacity:1;visibility:visible;display:block;overflow:visible"/><rect style="opacity:.78481014;color:#000;fill:#e7e7e7;fill-opacity:1;fill-rule:nonzero;stroke:none;stroke-width:.5;stroke-linecap:round;stroke-linejoin:round;marker:none;marker-start:none;marker-mid:none;marker-end:none;stroke-miterlimit:4;stroke-dasharray:none;stroke-dashoffset:0;stroke-opacity:1;visibility:visible;display:block;overflow:visible" id="rect2596" width="4.277" height="6.089" x="239.244" y="70.962" rx=".574" ry=".656" transform="matrix(0.983711,-0.1797574,0,1,0,0)"/><rect id="rect2598" width="4.284" height="6.089" x="252.712" y="140.106" rx=".567" ry=".656" transform="matrix(0.9024861,-0.4307191,0,1,0,0)" style="opacity:.55316455;color:#000;fill:#e7e7e7;fill-opacity:1;fill-rule:nonzero;stroke:none;stroke-width:.5;stroke-linecap:round;stroke-linejoin:round;marker:none;marker-start:none;marker-mid:none;marker-end:none;stroke-miterlimit:4;stroke-dasharray:none;stroke-dashoffset:0;stroke-opacity:1;visibility:visible;display:block;overflow:visible"/><path style="opacity:.75949366;fill:#222;fill-opacity:1;fill-rule:evenodd;stroke:none;stroke-width:.25pt;stroke-linecap:butt;stroke-linejoin:miter;stroke-opacity:1" id="path2619" d="M 233.69802,84.983283 L 233.69802,88.245326 C 228.72284,87.157978 221.95657,83.460999 218.97146,78.676671 L 218.97146,74.979693 C 221.95657,80.198958 227.32978,83.460999 233.69802,84.983283 z"/><path style="opacity:.37341769;fill:#222;fill-opacity:1;fill-rule:evenodd;stroke:none;stroke-width:.25pt;stroke-linecap:butt;stroke-linejoin:miter;stroke-opacity:1" id="path2623" d="M 233.69802,110.69057 L 233.69802,113.95262 C 224.34467,109.60323 221.35955,106.34119 218.97146,100.90445 L 218.97146,97.207474 C 222.5536,104.1665 227.52878,107.86347 233.69802,110.69057 z"/><path id="path2639" d="M 233.69802,103.71625 L 233.69802,106.9783 C 224.34467,102.62891 221.35955,99.366866 218.97146,93.93013 L 218.97146,90.233153 C 222.5536,97.192175 227.52878,100.88915 233.69802,103.71625 z" style="opacity:.37341769;fill:#222;fill-opacity:1;fill-rule:evenodd;stroke:none;stroke-width:.25pt;stroke-linecap:butt;stroke-linejoin:miter;stroke-opacity:1"/></g></g></svg>